<svg preserveAspectRatio="none" width="100%" height="100%" overflow="visible" style="display: block;" viewBox="0 0 89 49" fill="none" xmlns="http://www.w3.org/2000/svg">
<g id="Logo" style="mix-blend-mode:multiply" clip-path="url(#clip0_0_119)">
<g id="Exclude">
<path d="M87.4424 0C88.4318 0 89.1652 0.944307 88.9639 1.94531L86.7275 12.8828C86.5809 13.6195 85.94 14.1484 85.207 14.1484H82.8613C82.1284 14.1485 81.4874 14.6774 81.3408 15.4141L79.8018 22.8945C79.6551 23.6312 79.0132 24.1602 78.2803 24.1602H73.04C72.3071 24.1602 71.6652 24.6891 71.5186 25.4258L68.2568 41.3877C68.0552 42.3509 67.231 43.0498 66.2783 43.0498H19.3682C18.1957 43.0499 17.0416 43.2577 15.9424 43.6543L1.31934 48.9434C0.604803 49.2077 -0.109734 48.6034 6.08712e-06 47.8291L0.696295 43.0684L6.50489 2.24805C6.68813 0.963544 7.75127 0 9.01563 0H87.4424ZM62.4121 33.8125C61.2027 33.8125 60.1943 34.7382 60.1943 36.1172C60.1944 37.175 60.928 37.9492 61.9541 37.9492C63.1607 37.9491 64.147 36.9902 64.1514 35.6162C64.1514 35.6195 64.1523 35.6227 64.1523 35.626V35.6074C64.1523 35.6104 64.1514 35.6133 64.1514 35.6162C64.1468 34.5823 63.4167 33.8126 62.4121 33.8125ZM15.4287 24.0088C10.9394 24.0088 7.75103 27.1256 7.75098 31.9424C7.75098 35.3425 9.91363 37.9307 14.1465 37.9307L14.1641 37.9121C15.52 37.9121 16.9683 37.6285 17.8662 37.1562C18.0309 37.0619 18.1219 36.8918 18.1221 36.7031L18.251 33.9072C18.2693 33.6995 18.0677 33.5297 17.8662 33.624C17.1699 33.9451 15.7952 34.4355 14.8057 34.4355C12.5886 34.4355 11.5254 33.3403 11.5254 31.4893C11.5254 29.1658 12.8635 27.5029 15.2822 27.5029C16.18 27.5029 17.0777 27.7489 17.7373 28.1455C17.9938 28.2966 18.3422 28.1643 18.5254 27.6543L19.332 25.5195C19.4234 25.2741 19.3496 25.0101 19.1299 24.8779C18.177 24.3113 16.7846 24.0088 15.4287 24.0088ZM27.5225 24.0273C23.3263 24.0274 20.0098 27.069 20.0098 31.8857C20.0098 35.2859 22.3185 37.9306 26.4414 37.9307C30.6376 37.9307 33.9541 34.8892 33.9541 30.0723C33.954 26.6722 31.7186 24.0273 27.5225 24.0273ZM42.3281 24.0273C38.1322 24.0276 34.8155 27.0691 34.8154 31.8857C34.8154 35.2858 37.1244 37.9305 41.2471 37.9307C45.4433 37.9307 48.7607 34.8892 48.7607 30.0723C48.7607 26.6722 46.5243 24.0273 42.3281 24.0273ZM51.876 24.2354C51.6195 24.2354 51.3991 24.4242 51.3623 24.6885L49.2734 37.0801C49.2185 37.4011 49.4565 37.7038 49.7861 37.7041H57.5928C57.8491 37.704 58.0686 37.5151 58.1055 37.251L58.4902 34.9268C58.545 34.6058 58.3072 34.3038 57.9775 34.3037H54.0195C53.6898 34.3037 53.452 34.0017 53.5068 33.6807L54.9902 24.8779C55.0452 24.5568 54.8074 24.2539 54.4775 24.2539H51.8574L51.876 24.2354ZM27.2842 27.4092C29.0798 27.4092 30.161 28.6178 30.1611 30.4688C30.1611 32.7922 28.7499 34.5684 26.6426 34.5684C24.8471 34.5681 23.7666 33.3588 23.7666 31.5078C23.7667 29.1846 25.1771 27.4093 27.2842 27.4092ZM42.1084 27.4092C43.904 27.4092 44.9852 28.6178 44.9854 30.4688C44.9854 32.792 43.5748 34.5681 41.4678 34.5684C39.672 34.5684 38.5908 33.359 38.5908 31.5078C38.5909 29.1846 40.0014 27.4094 42.1084 27.4092ZM62.7236 24.2734C62.4671 24.2734 62.2466 24.4621 62.21 24.7266L61.2393 31.9238C61.1844 32.2448 61.4408 32.5283 61.7705 32.5283L63.8965 32.4336C64.1344 32.4335 64.3355 32.2637 64.3906 32.0186L65.875 24.916C65.9483 24.5949 65.6921 24.2736 65.3623 24.2734H62.7236ZM12.6982 5.36426C12.4418 5.36436 12.2405 5.55397 12.1856 5.81836L10.1152 18.1904C10.0419 18.5304 10.2981 18.833 10.6279 18.833H13.2295C13.486 18.833 13.7064 18.6442 13.7432 18.3799L14.2197 15.6025C14.2383 15.4892 14.3662 15.3008 14.3662 15.3008L15.7402 13.9023L18.0127 18.5312C18.1044 18.7199 18.2693 18.833 18.4707 18.833H21.4941C21.897 18.8329 22.1352 18.3988 21.9707 18.04L18.874 11.7686C18.7641 11.5608 18.8 11.3145 18.9648 11.1445L24.2246 5.59082C24.2428 5.57184 24.2607 5.53451 24.2607 5.49707C24.2607 5.42151 24.1328 5.36426 24.1328 5.36426H20.4678C20.3213 5.36428 20.1929 5.421 20.083 5.53418L17.0967 8.72656C16.3822 9.482 15.5024 10.5966 15.0625 11.3711H14.916L15.832 6.00684C15.887 5.66685 15.6299 5.36426 15.3184 5.36426H12.6982ZM47.9902 5.38379C47.7339 5.38398 47.5142 5.57259 47.4775 5.83691L45.3887 18.21C45.3339 18.5309 45.5718 18.8328 45.9014 18.833H48.5039C48.7603 18.8329 48.9799 18.6441 49.0166 18.3799L49.6035 14.9229H50.8311L50.8496 14.9414C54.7706 14.9413 57.3358 13.2039 57.3359 9.67188C57.3359 7.12176 55.6683 5.38379 52.2783 5.38379H47.9902ZM70.8223 5.38379C70.5659 5.38395 70.3462 5.55403 70.3096 5.81836L69.9063 8.1416C69.8514 8.48154 70.0902 8.7832 70.4199 8.7832H72.6367C72.9666 8.7832 73.2044 9.0861 73.1494 9.40723L71.666 18.21C71.6112 18.531 71.849 18.833 72.1787 18.833H74.7803C75.0368 18.833 75.2572 18.6443 75.294 18.3799L76.833 9.21777C76.8698 8.95362 77.0894 8.7648 77.3457 8.76465H79.875L79.9111 8.80273C80.1494 8.80273 80.3698 8.63229 80.4248 8.38672L80.9922 6.06348C81.0655 5.72349 80.8276 5.38384 80.4795 5.38379H70.8223ZM26.2217 5.36426C25.9651 5.36426 25.7456 5.5539 25.709 5.81836L23.6191 18.1904C23.5642 18.5116 23.803 18.8145 24.1328 18.8145H32.3057C32.562 18.8142 32.7817 18.6246 32.8184 18.3604L33.2031 16.0938C33.2579 15.7729 33.02 15.471 32.6904 15.4707H27.7246L28.0361 13.6758H31.8467C32.1032 13.6758 32.3237 13.5057 32.3604 13.2412L32.7451 11.0508C32.8001 10.7108 32.5613 10.4082 32.2315 10.4082H28.6035L28.8965 8.70801H33.7158C33.954 8.70801 34.1745 8.55707 34.2295 8.31152H34.2109L34.7793 6.04492C34.8526 5.70491 34.6138 5.36426 34.2656 5.36426H26.2217ZM37.0879 5.36426C36.8314 5.36426 36.6118 5.5539 36.5752 5.81836L34.4863 18.1904C34.4314 18.5116 34.6692 18.8145 34.999 18.8145H43.1719C43.4282 18.8143 43.6479 18.6247 43.6846 18.3604L44.0693 16.0938C44.1241 15.7728 43.8862 15.4709 43.5566 15.4707H38.5908L38.9023 13.6758H42.7129C42.9694 13.6758 43.1899 13.5057 43.2266 13.2412L43.6113 11.0508C43.6663 10.7109 43.4282 10.4085 43.0986 10.4082H39.4697L39.7637 8.70801H44.582C44.8202 8.70801 45.0407 8.55706 45.0957 8.31152H45.0772L45.6455 6.04492C45.7188 5.70491 45.48 5.36426 45.1318 5.36426H37.0879ZM65.7832 5.36426C65.5267 5.36427 65.3072 5.55391 65.2705 5.81836L63.1816 18.1904C63.1267 18.5116 63.3645 18.8145 63.6943 18.8145H66.2959C66.5524 18.8145 66.7729 18.6248 66.8096 18.3604L68.8984 5.98828C68.9534 5.66716 68.7146 5.36426 68.3848 5.36426H65.7832ZM51.7842 8.44336C53.0116 8.44349 53.5615 8.95409 53.5615 9.8418C53.5614 11.145 52.7545 11.8438 51.1787 11.8438H50.0977L50.666 8.44336H51.7842Z" fill="var(--fill-0, #2C2C2C)"/>
<path d="M87.4424 0C88.4318 0 89.1652 0.944307 88.9639 1.94531L86.7275 12.8828C86.5809 13.6195 85.94 14.1484 85.207 14.1484H82.8613C82.1284 14.1485 81.4874 14.6774 81.3408 15.4141L79.8018 22.8945C79.6551 23.6312 79.0132 24.1602 78.2803 24.1602H73.04C72.3071 24.1602 71.6652 24.6891 71.5186 25.4258L68.2568 41.3877C68.0552 42.3509 67.231 43.0498 66.2783 43.0498H19.3682C18.1957 43.0499 17.0416 43.2577 15.9424 43.6543L1.31934 48.9434C0.604803 49.2077 -0.109734 48.6034 6.08712e-06 47.8291L0.696295 43.0684L6.50489 2.24805C6.68813 0.963544 7.75127 0 9.01563 0H87.4424ZM62.4121 33.8125C61.2027 33.8125 60.1943 34.7382 60.1943 36.1172C60.1944 37.175 60.928 37.9492 61.9541 37.9492C63.1607 37.9491 64.147 36.9902 64.1514 35.6162C64.1514 35.6195 64.1523 35.6227 64.1523 35.626V35.6074C64.1523 35.6104 64.1514 35.6133 64.1514 35.6162C64.1468 34.5823 63.4167 33.8126 62.4121 33.8125ZM15.4287 24.0088C10.9394 24.0088 7.75103 27.1256 7.75098 31.9424C7.75098 35.3425 9.91363 37.9307 14.1465 37.9307L14.1641 37.9121C15.52 37.9121 16.9683 37.6285 17.8662 37.1562C18.0309 37.0619 18.1219 36.8918 18.1221 36.7031L18.251 33.9072C18.2693 33.6995 18.0677 33.5297 17.8662 33.624C17.1699 33.9451 15.7952 34.4355 14.8057 34.4355C12.5886 34.4355 11.5254 33.3403 11.5254 31.4893C11.5254 29.1658 12.8635 27.5029 15.2822 27.5029C16.18 27.5029 17.0777 27.7489 17.7373 28.1455C17.9938 28.2966 18.3422 28.1643 18.5254 27.6543L19.332 25.5195C19.4234 25.2741 19.3496 25.0101 19.1299 24.8779C18.177 24.3113 16.7846 24.0088 15.4287 24.0088ZM27.5225 24.0273C23.3263 24.0274 20.0098 27.069 20.0098 31.8857C20.0098 35.2859 22.3185 37.9306 26.4414 37.9307C30.6376 37.9307 33.9541 34.8892 33.9541 30.0723C33.954 26.6722 31.7186 24.0273 27.5225 24.0273ZM42.3281 24.0273C38.1322 24.0276 34.8155 27.0691 34.8154 31.8857C34.8154 35.2858 37.1244 37.9305 41.2471 37.9307C45.4433 37.9307 48.7607 34.8892 48.7607 30.0723C48.7607 26.6722 46.5243 24.0273 42.3281 24.0273ZM51.876 24.2354C51.6195 24.2354 51.3991 24.4242 51.3623 24.6885L49.2734 37.0801C49.2185 37.4011 49.4565 37.7038 49.7861 37.7041H57.5928C57.8491 37.704 58.0686 37.5151 58.1055 37.251L58.4902 34.9268C58.545 34.6058 58.3072 34.3038 57.9775 34.3037H54.0195C53.6898 34.3037 53.452 34.0017 53.5068 33.6807L54.9902 24.8779C55.0452 24.5568 54.8074 24.2539 54.4775 24.2539H51.8574L51.876 24.2354ZM27.2842 27.4092C29.0798 27.4092 30.161 28.6178 30.1611 30.4688C30.1611 32.7922 28.7499 34.5684 26.6426 34.5684C24.8471 34.5681 23.7666 33.3588 23.7666 31.5078C23.7667 29.1846 25.1771 27.4093 27.2842 27.4092ZM42.1084 27.4092C43.904 27.4092 44.9852 28.6178 44.9854 30.4688C44.9854 32.792 43.5748 34.5681 41.4678 34.5684C39.672 34.5684 38.5908 33.359 38.5908 31.5078C38.5909 29.1846 40.0014 27.4094 42.1084 27.4092ZM62.7236 24.2734C62.4671 24.2734 62.2466 24.4621 62.21 24.7266L61.2393 31.9238C61.1844 32.2448 61.4408 32.5283 61.7705 32.5283L63.8965 32.4336C64.1344 32.4335 64.3355 32.2637 64.3906 32.0186L65.875 24.916C65.9483 24.5949 65.6921 24.2736 65.3623 24.2734H62.7236ZM12.6982 5.36426C12.4418 5.36436 12.2405 5.55397 12.1856 5.81836L10.1152 18.1904C10.0419 18.5304 10.2981 18.833 10.6279 18.833H13.2295C13.486 18.833 13.7064 18.6442 13.7432 18.3799L14.2197 15.6025C14.2383 15.4892 14.3662 15.3008 14.3662 15.3008L15.7402 13.9023L18.0127 18.5312C18.1044 18.7199 18.2693 18.833 18.4707 18.833H21.4941C21.897 18.8329 22.1352 18.3988 21.9707 18.04L18.874 11.7686C18.7641 11.5608 18.8 11.3145 18.9648 11.1445L24.2246 5.59082C24.2428 5.57184 24.2607 5.53451 24.2607 5.49707C24.2607 5.42151 24.1328 5.36426 24.1328 5.36426H20.4678C20.3213 5.36428 20.1929 5.421 20.083 5.53418L17.0967 8.72656C16.3822 9.482 15.5024 10.5966 15.0625 11.3711H14.916L15.832 6.00684C15.887 5.66685 15.6299 5.36426 15.3184 5.36426H12.6982ZM47.9902 5.38379C47.7339 5.38398 47.5142 5.57259 47.4775 5.83691L45.3887 18.21C45.3339 18.5309 45.5718 18.8328 45.9014 18.833H48.5039C48.7603 18.8329 48.9799 18.6441 49.0166 18.3799L49.6035 14.9229H50.8311L50.8496 14.9414C54.7706 14.9413 57.3358 13.2039 57.3359 9.67188C57.3359 7.12176 55.6683 5.38379 52.2783 5.38379H47.9902ZM70.8223 5.38379C70.5659 5.38395 70.3462 5.55403 70.3096 5.81836L69.9063 8.1416C69.8514 8.48154 70.0902 8.7832 70.4199 8.7832H72.6367C72.9666 8.7832 73.2044 9.0861 73.1494 9.40723L71.666 18.21C71.6112 18.531 71.849 18.833 72.1787 18.833H74.7803C75.0368 18.833 75.2572 18.6443 75.294 18.3799L76.833 9.21777C76.8698 8.95362 77.0894 8.7648 77.3457 8.76465H79.875L79.9111 8.80273C80.1494 8.80273 80.3698 8.63229 80.4248 8.38672L80.9922 6.06348C81.0655 5.72349 80.8276 5.38384 80.4795 5.38379H70.8223ZM26.2217 5.36426C25.9651 5.36426 25.7456 5.5539 25.709 5.81836L23.6191 18.1904C23.5642 18.5116 23.803 18.8145 24.1328 18.8145H32.3057C32.562 18.8142 32.7817 18.6246 32.8184 18.3604L33.2031 16.0938C33.2579 15.7729 33.02 15.471 32.6904 15.4707H27.7246L28.0361 13.6758H31.8467C32.1032 13.6758 32.3237 13.5057 32.3604 13.2412L32.7451 11.0508C32.8001 10.7108 32.5613 10.4082 32.2315 10.4082H28.6035L28.8965 8.70801H33.7158C33.954 8.70801 34.1745 8.55707 34.2295 8.31152H34.2109L34.7793 6.04492C34.8526 5.70491 34.6138 5.36426 34.2656 5.36426H26.2217ZM37.0879 5.36426C36.8314 5.36426 36.6118 5.5539 36.5752 5.81836L34.4863 18.1904C34.4314 18.5116 34.6692 18.8145 34.999 18.8145H43.1719C43.4282 18.8143 43.6479 18.6247 43.6846 18.3604L44.0693 16.0938C44.1241 15.7728 43.8862 15.4709 43.5566 15.4707H38.5908L38.9023 13.6758H42.7129C42.9694 13.6758 43.1899 13.5057 43.2266 13.2412L43.6113 11.0508C43.6663 10.7109 43.4282 10.4085 43.0986 10.4082H39.4697L39.7637 8.70801H44.582C44.8202 8.70801 45.0407 8.55706 45.0957 8.31152H45.0772L45.6455 6.04492C45.7188 5.70491 45.48 5.36426 45.1318 5.36426H37.0879ZM65.7832 5.36426C65.5267 5.36427 65.3072 5.55391 65.2705 5.81836L63.1816 18.1904C63.1267 18.5116 63.3645 18.8145 63.6943 18.8145H66.2959C66.5524 18.8145 66.7729 18.6248 66.8096 18.3604L68.8984 5.98828C68.9534 5.66716 68.7146 5.36426 68.3848 5.36426H65.7832ZM51.7842 8.44336C53.0116 8.44349 53.5615 8.95409 53.5615 9.8418C53.5614 11.145 52.7545 11.8438 51.1787 11.8438H50.0977L50.666 8.44336H51.7842Z" fill="url(#paint0_radial_0_119)"/>
</g>
<g id="Group">
<path id="Vector" d="M18.9653 11.1449C18.8004 11.3149 18.7638 11.5605 18.8737 11.7682L21.9705 18.0396C22.1354 18.3986 21.8972 18.833 21.4941 18.833H18.4706C18.269 18.833 18.1041 18.7197 18.0125 18.5308L15.7403 13.9028L14.366 15.3006C14.366 15.3006 14.2377 15.4895 14.2194 15.6029L13.743 18.3797C13.7063 18.6441 13.4864 18.833 13.2299 18.833H10.6279C10.2981 18.833 10.0415 18.5308 10.1148 18.1908L12.1854 5.81798C12.2404 5.55352 12.442 5.36462 12.6985 5.36462H15.3188C15.6304 5.36462 15.8869 5.66686 15.8319 6.00688L14.9157 11.3716H15.0623C15.5021 10.5971 16.3816 9.48259 17.0963 8.727L20.0831 5.53463C20.1931 5.42129 20.3213 5.36462 20.4679 5.36462H24.1327C24.1327 5.36462 24.261 5.42129 24.261 5.49685C24.261 5.53463 24.2427 5.57241 24.2243 5.5913L18.9653 11.1449Z" fill="var(--fill-0, #503B14)"/>
<path id="Vector_2" d="M34.2293 8.31143C34.1743 8.55699 33.9544 8.70811 33.7162 8.70811H28.897L28.6038 10.4082H32.232C32.5618 10.4082 32.8 10.7104 32.745 11.0504L32.3602 13.2416C32.3236 13.5061 32.1037 13.6761 31.8472 13.6761H28.0358L27.7242 15.4706H32.6901C33.0199 15.4706 33.2581 15.7729 33.2031 16.094L32.8183 18.3608C32.7817 18.6252 32.5618 18.8141 32.3053 18.8141H24.1327C23.8029 18.8141 23.5647 18.5119 23.6197 18.1908L25.7086 5.81798C25.7452 5.55352 25.9651 5.36462 26.2217 5.36462H34.2659C34.6141 5.36462 34.8523 5.70464 34.779 6.04466L34.211 8.31143H34.2293Z" fill="var(--fill-0, #503B14)"/>
<path id="Vector_3" d="M45.0956 8.31143C45.0406 8.55699 44.8207 8.70811 44.5825 8.70811H39.7633L39.4701 10.4082H43.0982C43.4281 10.4082 43.6663 10.7104 43.6113 11.0504L43.2265 13.2416C43.1899 13.5061 42.97 13.6761 42.7134 13.6761H38.902L38.5905 15.4706H43.5563C43.8862 15.4706 44.1244 15.7729 44.0694 16.094L43.6846 18.3608C43.648 18.6252 43.4281 18.8141 43.1715 18.8141H34.999C34.6692 18.8141 34.431 18.5119 34.4859 18.1908L36.5749 5.81798C36.6115 5.55352 36.8314 5.36462 37.0879 5.36462H45.1322C45.4804 5.36462 45.7186 5.70464 45.6453 6.04466L45.0772 8.31143H45.0956Z" fill="var(--fill-0, #503B14)"/>
<path id="Vector_4" d="M50.8309 14.9229H49.6032L49.0168 18.3797C48.9802 18.6441 48.7603 18.833 48.5037 18.833H45.9017C45.5719 18.833 45.3337 18.5308 45.3887 18.2097L47.4776 5.83689C47.5142 5.57243 47.7341 5.38353 47.9907 5.38353H52.2785C55.6685 5.38353 57.3359 7.12139 57.3359 9.67151C57.3359 13.2039 54.7706 14.9417 50.8492 14.9417L50.8309 14.9229ZM51.7654 8.44367H50.666L50.0979 11.8438H51.1791C52.7549 11.8438 53.5612 11.1449 53.5612 9.84151C53.5612 8.9537 53.0115 8.44367 51.7838 8.44367H51.7654Z" fill="var(--fill-0, #503B14)"/>
<path id="Vector_5" d="M66.2963 18.8141H63.6943C63.3645 18.8141 63.1263 18.5119 63.1813 18.1908L65.2702 5.81798C65.3068 5.55352 65.5267 5.36462 65.7833 5.36462H68.3853C68.7151 5.36462 68.9533 5.66686 68.8984 5.98799L66.8094 18.3608C66.7728 18.6252 66.5529 18.8141 66.2963 18.8141Z" fill="var(--fill-0, #503B14)"/>
<path id="Vector_6" d="M79.8748 8.7648H77.3461C77.0895 8.7648 76.8696 8.9537 76.833 9.21815L75.2938 18.3797C75.2571 18.6441 75.0372 18.833 74.7807 18.833H72.1787C71.8488 18.833 71.6106 18.5308 71.6656 18.2097L73.1498 9.40705C73.2048 9.08592 72.9666 8.78369 72.6368 8.78369H70.4196C70.0897 8.78369 69.8515 8.48145 69.9065 8.14144L70.3096 5.818C70.3463 5.55354 70.5662 5.38353 70.8227 5.38353H80.4795C80.8276 5.38353 81.0659 5.72355 80.9926 6.06356L80.4245 8.387C80.3695 8.63257 80.1496 8.80258 79.9114 8.80258L79.8748 8.7648Z" fill="var(--fill-0, #503B14)"/>
<path id="Vector_7" d="M14.1462 37.9305C9.91333 37.9305 7.75109 35.3426 7.75109 31.9425C7.75109 27.1256 10.9395 24.0088 15.4289 24.0088C16.7849 24.0088 18.1775 24.311 19.1303 24.8777C19.3502 25.01 19.4235 25.2744 19.3319 25.52L18.5256 27.6545C18.3424 28.1645 17.9942 28.2968 17.7377 28.1456C17.078 27.749 16.1802 27.5034 15.2823 27.5034C12.8635 27.5034 11.5259 29.1657 11.5259 31.4891C11.5259 33.3403 12.5886 34.4359 14.8059 34.4359C15.7954 34.4359 17.1697 33.9448 17.866 33.6237C18.0675 33.5292 18.2691 33.6992 18.2508 33.907L18.1225 36.7027C18.1225 36.8916 18.0309 37.0616 17.866 37.1561C16.9681 37.6283 15.5205 37.9116 14.1645 37.9116L14.1462 37.9305Z" fill="var(--fill-0, #503B14)"/>
<path id="Vector_8" d="M26.4415 37.9306C22.3186 37.9306 20.0098 35.286 20.0098 31.8858C20.0098 27.069 23.3264 24.0277 27.5227 24.0277C31.7189 24.0277 33.9544 26.6723 33.9544 30.0724C33.9544 34.8893 30.6377 37.9306 26.4415 37.9306ZM27.2844 27.409C25.1772 27.409 23.7662 29.1846 23.7662 31.508C23.7662 33.3592 24.8473 34.5682 26.6431 34.5682C28.7504 34.5682 30.1613 32.7925 30.1613 30.4691C30.1613 28.6179 29.0802 27.409 27.2844 27.409Z" fill="var(--fill-0, #503B14)"/>
<path id="Vector_9" d="M41.2475 37.9306C37.1246 37.9306 34.8158 35.286 34.8158 31.8858C34.8158 27.069 38.1324 24.0277 42.3286 24.0277C46.5249 24.0277 48.7604 26.6723 48.7604 30.0724C48.7604 34.8893 45.4437 37.9306 41.2475 37.9306ZM42.1088 27.409C40.0015 27.409 38.5905 29.1846 38.5905 31.508C38.5905 33.3592 39.6717 34.5682 41.4674 34.5682C43.5747 34.5682 44.9856 32.7925 44.9856 30.4691C44.9856 28.6179 43.9045 27.409 42.1088 27.409Z" fill="var(--fill-0, #503B14)"/>
<path id="Vector_10" d="M51.8573 24.2544H54.4776C54.8074 24.2544 55.0457 24.5566 54.9907 24.8777L53.5064 33.6803C53.4515 34.0015 53.6897 34.3037 54.0195 34.3037H57.9775C58.3073 34.3037 58.5456 34.6059 58.4906 34.9271L58.1058 37.2505C58.0691 37.515 57.8492 37.7038 57.5927 37.7038H49.7866C49.4568 37.7038 49.2186 37.4016 49.2736 37.0805L51.3625 24.6888C51.3992 24.4244 51.6191 24.2355 51.8756 24.2355L51.8573 24.2544Z" fill="var(--fill-0, #503B14)"/>
<path id="Vector_11" d="M64.1528 35.6071C64.1528 36.9861 63.1633 37.9495 61.9539 37.9495C60.9278 37.9495 60.1948 37.175 60.1948 36.1172C60.1948 34.7382 61.2026 33.8126 62.412 33.8126C63.4198 33.8126 64.1528 34.5871 64.1528 35.626V35.6071ZM63.8963 32.4336L61.7707 32.5281C61.4408 32.5281 61.1843 32.2448 61.2393 31.9236L62.2104 24.7266C62.2471 24.4622 62.467 24.2733 62.7235 24.2733H65.3622C65.692 24.2733 65.9486 24.5944 65.8753 24.9155L64.391 32.0181C64.336 32.2636 64.1345 32.4336 63.8963 32.4336Z" fill="var(--fill-0, #503B14)"/>
</g>
</g>
<defs>
<radialGradient id="paint0_radial_0_119" cx="0" cy="0" r="1" gradientUnits="userSpaceOnUse" gradientTransform="translate(44.493 5.22558) rotate(90) scale(120.57 125.631)">
<stop stop-color="#FAD724"/>
<stop offset="1" stop-color="#D8970A"/>
</radialGradient>
<clipPath id="clip0_0_119">
<rect width="89" height="49" fill="white"/>
</clipPath>
</defs>
</svg>
